<svg width="1850" height="897" viewBox="0 0 1850 897" fill="none" xmlns="http://www.w3.org/2000/svg">
<line x1="812" y1="161" x2="812" y2="181" stroke="#FF7676" stroke-width="4" stroke-linecap="round"/>
<line x1="137.25" y1="669.449" x2="133.109" y2="684.904" stroke="#FF7676" stroke-width="4" stroke-linecap="round"/>
<line x1="1514" y1="435" x2="1514" y2="447" stroke="#FF7676" stroke-width="4" stroke-linecap="round"/>
<line x1="1484" y1="542" x2="1484" y2="558" stroke="#FF7676" stroke-width="4" stroke-linecap="round"/>
<line x1="802" y1="171" x2="822" y2="171" stroke="#FF7676" stroke-width="4" stroke-linecap="round"/>
<line x1="127.449" y1="675.106" x2="142.904" y2="679.247" stroke="#FF7676" stroke-width="4" stroke-linecap="round"/>
<line x1="1508" y1="441" x2="1520" y2="441" stroke="#FF7676" stroke-width="4" stroke-linecap="round"/>
<line x1="1476" y1="550" x2="1492" y2="550" stroke="#FF7676" stroke-width="4" stroke-linecap="round"/>
<circle cx="897.5" cy="670.5" r="5.5" stroke="#FF7676" stroke-width="4"/>
<circle cx="1655.5" cy="236.5" r="5.5" stroke="#FF7676" stroke-width="4"/>
<circle cx="764.5" cy="251.5" r="5.5" stroke="#FF7676" stroke-width="4"/>
<circle cx="1291" cy="193" r="8" stroke="#FF7676" stroke-width="4"/>
<path d="M1551.5 656L1559.73 670.25H1543.27L1551.5 656Z" stroke="#FF7676" stroke-width="4"/>
<path d="M885.5 380L892.861 392.75L878.139 392.75L885.5 380Z" stroke="#FF7676" stroke-width="4"/>
<circle cx="1218" cy="582" r="293" stroke="#E63946" stroke-width="8" stroke-dasharray="16 16"/>
<mask id="mask0_44_16" style="mask-type:alpha" maskUnits="userSpaceOnUse" x="-70" y="-1" width="1920" height="898">
<rect x="-70" y="-1" width="1920" height="898" fill="#C4C4C4"/>
</mask>
<g mask="url(#mask0_44_16)">
<circle cx="1924" cy="39" r="293" stroke="#E63946" stroke-width="8" stroke-dasharray="16 16"/>
<circle cx="-9" cy="740" r="293" stroke="#E63946" stroke-width="8" stroke-dasharray="16 16"/>
</g>
</svg>
